# xmcd CD database file
# Copyright (C) 1996 Ti Kan
#
# Track frame offsets:
#	150
#	16125
#	33515
#	47370
#	55657
#	68742
#	74257
#	79515
#	94190
#	107907
#	120357
#	135780
#	149627
#	164107
#	166737
#	182147
#	195055
#	210437
#	220087
#	229652
#	245715
#	262250
#
# Disc length: 3699 seconds
#
# Revision: 1
# Processed by: cddbd v1.4b41PL1 Copyright (c) Steve Scherf et al.
# Submitted via: EasyCD 2.21 - (C) 1996 Greg Leichner
#
DISCID=2b0e7116
DTITLE=Muddy Waters - The Complete Plantation Recordings
DYEAR=1900
DGENRE=
TTITLE0=Country Blues (Number One)
TTITLE1=Interview #1
TTITLE2=I Be's Troubled
TTITLE3=Interview #2
TTITLE4=Burr Clover Farm Blues
TTITLE5=Interview #3
TTITLE6=Ramblin' Kid Blues (partial)
TTITLE7=Ramblin' Kid Blues
TTITLE8=Rosalie
TTITLE9=Joe Turner
TTITLE10=Pearly May Blues
TTITLE11=Take a Walk With Me
TTITLE12=Burr Clover Blues
TTITLE13=Interview #4
TTITLE14=I Be Bound To Write To You (First Version)
TTITLE15=I Be Bound To Write To You (Second Version)
TTITLE16=You're Gonna Miss Me When I'm Gone (Number One)
TTITLE17=You Got To Take Sick And Die Some Of These Days
TTITLE18=Why Don't You Live So God Can Use You
TTITLE19=Country Blues (Number Two)
TTITLE20=You're Gonna Miss Me When I'm Gone (Number two)
TTITLE21=32-20 Blues
EXTD=
EXTT0=
EXTT1=
EXTT2=
EXTT3=
EXTT4=
EXTT5=
EXTT6=
EXTT7=
EXTT8=
EXTT9=
EXTT10=
EXTT11=
EXTT12=
EXTT13=
EXTT14=
EXTT15=
EXTT16=
EXTT17=
EXTT18=
EXTT19=
EXTT20=
EXTT21=
PLAYORDER=
